<?xml version="1.0" ?><!DOCTYPE svg  PUBLIC '-//W3C//DTD SVG 1.1//EN'  'http://www.w3.org/Graphics/SVG/1.1/DTD/svg11.dtd'><svg id="Layer_21" style="enable-background:new 0 0 243.7 243.8;" version="1.1" viewBox="0 0 243.7 243.8" xml:space="preserve" xmlns="http://www.w3.org/2000/svg" xmlns:xlink="http://www.w3.org/1999/xlink"><style type="text/css">
	.st0{fill:#48515A;}
	.st1{clip-path:url(#SVGID_2_);}
	.st2{fill:#45525B;}
	.st3{fill:#FFFFFF;}
	.st4{opacity:0.2;}
	.st5{opacity:0.5;}
	.st6{fill:#00CAD1;}
	.st7{fill:#FCBB51;}
	.st8{fill:#FFD55C;}
	.st9{fill:#FFB251;}
	.st10{fill:#FFC958;}
	.st11{opacity:0.3;}
	.st12{fill:#FFA74D;}
</style><g><g><g><g><g><path class="st0" d="M0,121.9c0,67,54.8,121.9,121.9,121.9s121.9-54.8,121.9-121.9C243.7,54.8,188.9,0,121.9,0S0,54.8,0,121.9        z"/></g></g><g><defs><path d="M121.9,0C54.8,0,0,54.8,0,121.9c0,67,54.8,121.9,121.9,121.9c67,0,121.9-54.8,121.9-121.9        C243.7,54.8,188.9,0,121.9,0z" id="SVGID_1_"/></defs><clipPath id="SVGID_2_"><use style="overflow:visible;" xlink:href="#SVGID_1_"/></clipPath><g class="st1"><rect class="st2" height="257.6" width="257.6" x="-10.5" y="-11.2"/><path class="st3" d="M247.6,246.9H-11V-11.7h258.6V246.9z M-10,245.9h256.6V-10.7H-10V245.9z"/></g><g class="st1"><g class="st4"><g class="st5"><path class="st3" d="M-10.6-27.5v287V-27.5z"/><rect class="st3" height="287" width="1" x="-11.1" y="-27.5"/></g><g class="st5"><path class="st3" d="M6.6-27.5v287V-27.5z"/><rect class="st3" height="287" width="1" x="6.1" y="-27.5"/></g><g class="st5"><path class="st3" d="M23.8-27.5v287V-27.5z"/><rect class="st3" height="287" width="1" x="23.3" y="-27.5"/></g><g class="st5"><path class="st3" d="M40.9-27.5v287V-27.5z"/><rect class="st3" height="287" width="1" x="40.4" y="-27.5"/></g><g class="st5"><path class="st3" d="M58.1-27.5v287V-27.5z"/><rect class="st3" height="287" width="1" x="57.6" y="-27.5"/></g><g class="st5"><path class="st3" d="M75.3-27.5v287V-27.5z"/><rect class="st3" height="287" width="1" x="74.8" y="-27.5"/></g><g class="st5"><path class="st3" d="M109.7-27.5v287V-27.5z"/><rect class="st3" height="287" width="1" x="109.2" y="-27.5"/></g><g class="st5"><path class="st3" d="M144.1-27.5v287V-27.5z"/><rect class="st3" height="287" width="1" x="143.6" y="-27.5"/></g><g class="st5"><path class="st3" d="M92.5-27.5v287V-27.5z"/><rect class="st3" height="287" width="1" x="92" y="-27.5"/></g><g class="st5"><path class="st3" d="M126.9-27.5v287V-27.5z"/><rect class="st3" height="287" width="1" x="126.4" y="-27.5"/></g><g class="st5"><path class="st3" d="M161.3-27.5v287V-27.5z"/><rect class="st3" height="287" width="1" x="160.8" y="-27.5"/></g><g class="st5"><path class="st3" d="M178.5-27.5v287V-27.5z"/><rect class="st3" height="287" width="1" x="178" y="-27.5"/></g><g class="st5"><path class="st3" d="M195.7-27.5v287V-27.5z"/><rect class="st3" height="287" width="1" x="195.2" y="-27.5"/></g><g class="st5"><path class="st3" d="M212.9-27.5v287V-27.5z"/><rect class="st3" height="287" width="1" x="212.4" y="-27.5"/></g><g class="st5"><path class="st3" d="M230.1-27.5v287V-27.5z"/><rect class="st3" height="287" width="1" x="229.6" y="-27.5"/></g><g class="st5"><path class="st3" d="M247.3-27.5v287V-27.5z"/><rect class="st3" height="287" width="1" x="246.8" y="-27.5"/></g><g class="st5"><path class="st3" d="M261.4-11.6h-287H261.4z"/><rect class="st3" height="1" width="287" x="-25.6" y="-12.1"/></g><g class="st5"><path class="st3" d="M261.4,5.6h-287H261.4z"/><rect class="st3" height="1" width="287" x="-25.6" y="5.1"/></g><g class="st5"><path class="st3" d="M261.4,22.8h-287H261.4z"/><rect class="st3" height="1" width="287" x="-25.6" y="22.3"/></g><g class="st5"><path class="st3" d="M261.4,40h-287H261.4z"/><rect class="st3" height="1" width="287" x="-25.6" y="39.5"/></g><g class="st5"><path class="st3" d="M261.4,57.1h-287H261.4z"/><rect class="st3" height="1" width="287" x="-25.6" y="56.6"/></g><g class="st5"><path class="st3" d="M261.4,74.3h-287H261.4z"/><rect class="st3" height="1" width="287" x="-25.6" y="73.8"/></g><g class="st5"><path class="st3" d="M261.4,108.7h-287H261.4z"/><rect class="st3" height="1" width="287" x="-25.6" y="108.2"/></g><g class="st5"><path class="st3" d="M261.4,143.1h-287H261.4z"/><rect class="st3" height="1" width="287" x="-25.6" y="142.6"/></g><g class="st5"><path class="st3" d="M261.4,91.5h-287H261.4z"/><rect class="st3" height="1" width="287" x="-25.6" y="91"/></g><g class="st5"><path class="st3" d="M261.4,125.9h-287H261.4z"/><rect class="st3" height="1" width="287" x="-25.6" y="125.4"/></g><g class="st5"><path class="st3" d="M261.4,160.3h-287H261.4z"/><rect class="st3" height="1" width="287" x="-25.6" y="159.8"/></g><g class="st5"><path class="st3" d="M261.4,177.5h-287H261.4z"/><rect class="st3" height="1" width="287" x="-25.6" y="177"/></g><g class="st5"><path class="st3" d="M261.4,194.7h-287H261.4z"/><rect class="st3" height="1" width="287" x="-25.6" y="194.2"/></g><g class="st5"><path class="st3" d="M261.4,211.9h-287H261.4z"/><rect class="st3" height="1" width="287" x="-25.6" y="211.4"/></g><g class="st5"><path class="st3" d="M261.4,229.1h-287H261.4z"/><rect class="st3" height="1" width="287" x="-25.6" y="228.6"/></g><g class="st5"><path class="st3" d="M261.4,246.3h-287H261.4z"/><rect class="st3" height="1" width="287" x="-25.6" y="245.8"/></g></g></g></g><g><g><g><path class="st6" d="M93.5,94.5l7.7,14.6l2.4,4.6l3.1-4.1l30.4-41.1l9.7,21.1l37.1-43l-3.5-3L148,81.2l-10-21.7L104.3,105         L93.9,85.4l-61.1,93.1c1.5,0,3.4,0,5.6,0L93.5,94.5z"/></g></g><g><g><polygon class="st6" points="172.5,46.1 185.6,41.1 183.4,54.9        "/></g><g><g><g><g><g><g><rect class="st7" height="7.4" width="42.8" x="137.9" y="97"/></g></g><g><g><polygon class="st8" points="179.5,133.8 179.5,126.4 176.5,126.4 176.5,118.9 176.2,118.9 176.2,118.9 178.9,118.9               178.9,111.5 176.5,111.5 176.5,104 133.7,104 133.7,111.5 136.4,111.5 136.4,111.5 136.1,111.5 136.1,118.9               133.7,118.9 133.7,126.4 136.7,126.4 136.7,133.8 134.8,133.8 134.8,141.3 135.9,141.3 135.9,148.7 135,148.7               135,154.7 134.9,154.7 134.9,156.2 133.7,156.2 133.7,163.6 135.8,163.6 135.8,171.1 136.2,171.1 136.2,171.1               130.8,171.1 130.8,178.5 173.6,178.5 173.6,173.7 173.6,171.1 178.6,171.1 178.6,163.6 176.5,163.6 176.5,163.6               176.5,162.2 176.5,162.2 176.5,156.2 177.9,156.2 177.9,148.7 178.7,148.7 178.7,141.3 177.6,141.3 177.6,133.8                           "/></g></g><g><g><rect class="st9" height="7.5" width="42.8" x="130.8" y="171.1"/></g></g><g><g><rect class="st7" height="7.5" width="42.8" x="135.8" y="163.6"/></g></g><g><g><rect class="st10" height="7.5" width="42.8" x="133.7" y="156.2"/></g></g><g><g><rect class="st7" height="7.5" width="42.8" x="135" y="148.7"/></g></g><g><g><rect class="st8" height="7.5" width="42.8" x="135.9" y="141.3"/></g></g><g><g><rect class="st7" height="7.5" width="42.8" x="134.8" y="133.8"/></g></g><g><g><rect class="st10" height="7.5" width="42.8" x="136.7" y="126.4"/></g></g><g><g><rect class="st9" height="7.5" width="42.8" x="133.7" y="118.9"/></g></g><g><g><rect class="st7" height="7.4" width="42.8" x="136.1" y="111.5"/></g></g><g><g><rect class="st8" height="7.5" width="42.8" x="133.7" y="104"/></g></g></g><g><g><g><polygon class="st8" points="126.5,155.9 126.5,148.5 122.1,148.5 122.1,148.5 122.1,141 125.4,141 125.4,133.6               122.1,133.6 122.1,126.1 79.3,126.1 79.3,133.6 82.6,133.6 82.6,141 79.3,141 79.3,148.5 83.7,148.5 83.7,151               83.7,155.9 83.7,155.9 81.7,155.9 81.7,163.4 82.3,163.4 82.3,170.8 82.3,170.8 80.7,170.8 80.7,178.3 123.5,178.3               123.5,171.1 125.2,170.8 125.2,163.4 124.5,163.4 124.5,155.9             "/></g></g><g><g><rect class="st8" height="7.5" width="42.8" x="80.7" y="170.8"/></g></g><g><g><rect class="st9" height="7.4" width="42.8" x="82.3" y="163.4"/></g></g><g><g><rect class="st7" height="7.5" width="42.8" x="81.7" y="155.9"/></g></g><g><g><rect class="st10" height="7.5" width="42.8" x="83.7" y="148.5"/></g></g><g><g><rect class="st9" height="7.5" width="42.8" x="79.3" y="141"/></g></g><g><g><rect class="st10" height="7.5" width="42.8" x="82.6" y="133.6"/></g></g></g><g><g><g><rect class="st10" height="7.5" width="42.8" x="76" y="118.7"/></g></g></g><g class="st11"><g><polygon class="st12" points="93,136.4 135.4,178.7 78.3,178.7            "/></g></g><g><g><g><g><g><path class="st8" d="M88.7,175.3c-11.9,5.3-25.6,0.4-31.2-11.1c-2.8-5.7-3.1-12.1-1-18.1c2.1-6,6.4-10.8,12.2-13.6                c0.2-0.1,0.5-0.2,0.7-0.3c11.9-5.3,25.6-0.4,31.2,11.1c2.7,5.6,3.1,12,1.1,17.9c-2.1,6.1-6.5,11-12.3,13.8                C89.2,175.1,89,175.2,88.7,175.3z"/></g></g><g><g><path class="st7" d="M69.9,133.1c11.2-5,24.5-0.4,29.8,10.6c5.5,11.2,0.7,24.8-10.7,30.3c-0.2,0.1-0.4,0.2-0.7,0.3                c-11.3,5-24.5,0.4-29.8-10.6c-5.5-11.2-0.7-24.8,10.7-30.3C69.4,133.3,69.7,133.2,69.9,133.1L69.9,133.1z M69,131.2                L69,131.2c-0.2,0.1-0.5,0.2-0.7,0.3c-6,2.9-10.5,8-12.7,14.2c-2.2,6.3-1.8,13,1,18.9c5.9,12,20.1,17.1,32.5,11.6                c0.2-0.1,0.5-0.2,0.7-0.3c6.1-2.9,10.6-8,12.8-14.4c2.1-6.2,1.7-12.8-1.1-18.7C95.7,130.8,81.4,125.7,69,131.2                L69,131.2z"/></g></g></g><g><g><path class="st7" d="M86.8,153.6c-0.7-0.9-1.7-1.5-2.9-1.7c-0.5-0.1-1.1-0.1-1.9-0.1c-0.8,0-1.8,0.1-3,0.3l-1.3,0.3               c-0.9,0.2-1.8,0.2-2.4,0c-0.6-0.2-1.1-0.6-1.4-1.3c-0.3-0.6-0.3-1.2-0.1-2c0.2-0.7,0.7-1.2,1.6-1.7l1.2-0.5               c1-0.4,1.9-0.4,2.7,0.1c0.4,0.3,0.8,0.7,1.1,1.3l0.2,0.4l3.1-1.4l-0.2-0.5c-0.7-1.5-1.8-2.5-3.2-3               c-1.2-0.4-2.5-0.4-3.9,0l-1.4-3l-3.1,1.4l1.4,3c-1.2,0.8-2,1.7-2.5,2.9c0,0.1-0.1,0.1-0.1,0.2               c-0.5,1.6-0.5,3.1,0.2,4.5c0.7,1.5,1.7,2.6,3.1,3c1.3,0.4,3,0.4,5.1-0.1l1.3-0.2c1.4-0.2,2.1-0.2,2.5-0.1               c0.9,0.2,1.5,0.7,1.9,1.6c0.3,0.6,0.4,1.2,0.3,1.7c-0.1,1.1-0.7,1.9-1.9,2.5l-1.2,0.5c-1.3,0.5-2.4,0.4-3.2-0.2               c-0.3-0.2-0.8-0.8-1.5-2.1l-0.2-0.4l-3.1,1.4l0.2,0.5c0.7,1.5,1.5,2.6,2.4,3.3c1.5,1.1,3.4,1.4,5.6,0.7l1.3,2.9               l3.1-1.4l-1.3-2.9c1.1-0.7,1.9-1.5,2.4-2.3c1.1-1.7,1.2-3.8,0.1-6.2C87.3,154.4,87.1,153.9,86.8,153.6z"/></g></g></g><g><g><g><g><path class="st7" d="M69.2,138.6c0.6,0.8,0.5,2-0.3,2.6c-0.8,0.7-2,0.5-2.6-0.3c-0.6-0.8-0.5-2,0.3-2.6                C67.3,137.6,68.5,137.8,69.2,138.6z"/></g></g><g><g><path class="st7" d="M91.9,166.6c0.6,0.8,0.5,2-0.3,2.6c-0.8,0.6-2,0.5-2.6-0.3c-0.6-0.8-0.5-2,0.3-2.6                C90.1,165.6,91.3,165.8,91.9,166.6z"/></g></g></g><g><g><g><path class="st7" d="M73.4,136.5c0.4,0.9,0,2-0.9,2.5c-0.9,0.4-2,0-2.5-0.9c-0.4-0.9,0-2,0.9-2.5                C71.9,135.2,73,135.6,73.4,136.5z"/></g></g><g><g><path class="st7" d="M88.2,169.4c0.4,0.9,0,2-0.9,2.5c-0.9,0.4-2,0-2.5-0.9c-0.4-0.9,0-2,0.9-2.5                C86.6,168.1,87.7,168.5,88.2,169.4z"/></g></g></g><g><g><g><path class="st7" d="M65.6,141.7c0.8,0.6,1,1.8,0.4,2.6c-0.6,0.8-1.8,1-2.6,0.4c-0.8-0.6-1-1.8-0.4-2.6                C63.6,141.2,64.7,141.1,65.6,141.7z"/></g></g><g><g><path class="st7" d="M94.8,162.8c0.8,0.6,1,1.8,0.4,2.6c-0.6,0.8-1.8,1-2.6,0.4c-0.8-0.6-1-1.8-0.4-2.6                C92.8,162.4,94,162.2,94.8,162.8z"/></g></g></g><g><g><g><path class="st7" d="M62.9,145.6c1,0.4,1.4,1.4,1.1,2.4c-0.4,1-1.4,1.4-2.4,1.1c-1-0.4-1.4-1.4-1.1-2.4                C60.9,145.7,61.9,145.2,62.9,145.6z"/></g></g><g><g><path class="st7" d="M96.6,158.4c1,0.4,1.4,1.4,1.1,2.4c-0.4,1-1.4,1.4-2.4,1.1c-1-0.4-1.4-1.4-1.1-2.4                C94.6,158.5,95.7,158.1,96.6,158.4z"/></g></g></g><g><g><g><path class="st7" d="M61.3,150c1,0.1,1.8,1,1.7,2c-0.1,1-1,1.8-2,1.7c-1-0.1-1.8-1-1.7-2                C59.4,150.7,60.3,149.9,61.3,150z"/></g></g><g><g><path class="st7" d="M97.2,153.7c1,0.1,1.8,1,1.7,2c-0.1,1-1,1.8-2,1.7c-1-0.1-1.8-1-1.7-2                C95.3,154.4,96.2,153.6,97.2,153.7z"/></g></g></g><g><g><g><path class="st7" d="M61,154.8c1-0.2,2,0.5,2.1,1.5c0.2,1-0.5,2-1.5,2.1c-1,0.2-2-0.5-2.1-1.5                C59.3,155.9,60,154.9,61,154.8z"/></g></g><g><g><path class="st7" d="M96.6,149c1-0.2,2,0.5,2.1,1.5c0.2,1-0.5,2-1.5,2.1c-1,0.2-2-0.5-2.1-1.5                C94.9,150.2,95.6,149.2,96.6,149z"/></g></g></g><g><g><g><path class="st7" d="M61.9,159.4c0.9-0.4,2,0,2.5,0.9c0.4,0.9,0,2-0.9,2.5c-0.9,0.4-2,0-2.5-0.9                C60.5,160.9,60.9,159.8,61.9,159.4z"/></g></g><g><g><path class="st7" d="M94.8,144.7c0.9-0.4,2,0,2.5,0.9c0.4,0.9,0,2-0.9,2.5c-0.9,0.4-2,0-2.5-0.9                C93.4,146.2,93.9,145.1,94.8,144.7z"/></g></g></g><g><g><g><path class="st7" d="M63.9,163.7c0.8-0.6,2-0.5,2.6,0.3c0.7,0.8,0.5,2-0.3,2.6c-0.8,0.6-2,0.5-2.6-0.3                C63,165.5,63.1,164.3,63.9,163.7z"/></g></g><g><g><path class="st7" d="M91.9,140.9c0.8-0.7,2-0.5,2.6,0.3c0.7,0.8,0.5,2-0.3,2.6c-0.8,0.6-2,0.5-2.6-0.3                C91,142.7,91.1,141.6,91.9,140.9z"/></g></g></g><g><g><g><path class="st7" d="M67,167.3c0.6-0.8,1.8-1,2.6-0.4c0.8,0.6,1,1.8,0.4,2.6c-0.6,0.8-1.8,1-2.6,0.4                C66.6,169.3,66.4,168.1,67,167.3z"/></g></g><g><g><path class="st7" d="M88.2,138c0.6-0.8,1.8-1,2.6-0.4c0.8,0.6,1,1.8,0.4,2.6c-0.6,0.8-1.8,1-2.6,0.4                C87.8,140,87.6,138.9,88.2,138z"/></g></g></g><g><g><g><path class="st7" d="M70.9,169.9c0.4-1,1.4-1.4,2.4-1.1c1,0.4,1.4,1.4,1.1,2.4c-0.4,1-1.5,1.4-2.4,1.1                C71,172,70.6,170.9,70.9,169.9z"/></g></g><g><g><path class="st7" d="M83.8,136.2c0.4-1,1.4-1.4,2.4-1.1c1,0.4,1.4,1.4,1.1,2.4c-0.4,1-1.4,1.4-2.4,1.1                C83.9,138.3,83.4,137.2,83.8,136.2z"/></g></g></g><g><g><g><path class="st7" d="M75.4,171.5c0.1-1,1-1.8,2-1.7c1,0.1,1.8,1,1.7,2c-0.1,1-1,1.8-2,1.7                C76,173.4,75.3,172.5,75.4,171.5z"/></g></g><g><g><path class="st7" d="M79.1,135.6c0.1-1,1-1.8,2-1.7c1,0.1,1.8,1,1.7,2c-0.1,1-1,1.8-2,1.7                C79.7,137.5,79,136.6,79.1,135.6z"/></g></g></g><g><g><g><path class="st7" d="M80.1,171.8c-0.2-1,0.5-2,1.6-2.1c1-0.2,2,0.5,2.1,1.5c0.2,1-0.5,2-1.5,2.1                C81.2,173.6,80.3,172.9,80.1,171.8z"/></g></g><g><g><path class="st7" d="M74.4,136.2c-0.2-1,0.5-2,1.5-2.1c1-0.2,2,0.5,2.1,1.5c0.2,1-0.5,2-1.5,2.1                C75.5,137.9,74.6,137.2,74.4,136.2z"/></g></g></g></g></g></g></g></g></g></g></g></g></g></svg>